HIERARCHY
ROOT Hips
{
 OFFSET 0.000000 0.000000 0.000000
 CHANNELS 6 Xposition Yposition Zposition Yrotation Xrotation Zrotation
 JOINT Chest
 {
  OFFSET 0.000000 9.581000 -0.001100
  CHANNELS 3 Yrotation Xrotation Zrotation
  JOINT Chest2
  {
   OFFSET 0.000000 9.561100 0.002200
   CHANNELS 3 Yrotation Xrotation Zrotation
   JOINT Chest3
   {
    OFFSET 0.000000 9.521100 0.000000
    CHANNELS 3 Yrotation Xrotation Zrotation
    JOINT Chest4
    {
     OFFSET 0.000000 9.511400 0.000000
     CHANNELS 3 Yrotation Xrotation Zrotation
     JOINT Neck
     {
      OFFSET 0.000000 14.375100 0.000000
      CHANNELS 3 Yrotation Xrotation Zrotation
      JOINT Head
      {
       OFFSET 0.000000 8.901200 0.004600
       CHANNELS 3 Yrotation Xrotation Zrotation
       End Site
       {
        OFFSET 0.000000 16.962200 0.002400
       }
      }
     }
     JOINT RightCollar
     {
      OFFSET -2.920100 9.518800 0.000000
      CHANNELS 3 Yrotation Xrotation Zrotation
      JOINT RightShoulder
      {
       OFFSET -13.664500 0.000000 0.000000
       CHANNELS 3 Yrotation Xrotation Zrotation
       JOINT RightElbow
       {
        OFFSET 0.000000 -29.999200 0.000000
        CHANNELS 3 Yrotation Xrotation Zrotation
        JOINT RightWrist
        {
         OFFSET 0.000000 -24.253600 0.000000
         CHANNELS 3 Yrotation Xrotation Zrotation
         End Site
         {
          OFFSET 0.000000 -17.918900 0.000000
         }
        }
       }
      }
     }
     JOINT LeftCollar
     {
      OFFSET 2.920100 9.518800 0.000000
      CHANNELS 3 Yrotation Xrotation Zrotation
      JOINT LeftShoulder
      {
       OFFSET 13.664500 0.000000 0.000000
       CHANNELS 3 Yrotation Xrotation Zrotation
       JOINT LeftElbow
       {
        OFFSET 0.000000 -29.999200 0.000000
        CHANNELS 3 Yrotation Xrotation Zrotation
        JOINT LeftWrist
        {
         OFFSET 0.000000 -24.253600 0.000000
         CHANNELS 3 Yrotation Xrotation Zrotation
         End Site
         {
          OFFSET 0.000000 -17.918900 0.000000
         }
        }
       }
      }
     }
    }
   }
  }
 }
 JOINT RightHip
 {
  OFFSET -7.797300 0.005300 0.000500
  CHANNELS 3 Yrotation Xrotation Zrotation
  JOINT RightKnee
  {
   OFFSET 0.000000 -40.663400 -0.000500
   CHANNELS 3 Yrotation Xrotation Zrotation
   JOINT RightAnkle
   {
    OFFSET 0.000000 -39.523700 -0.000900
    CHANNELS 3 Yrotation Xrotation Zrotation
    JOINT RightToe
    {
     OFFSET 0.000000 -6.418000 14.485300
     CHANNELS 3 Yrotation Xrotation Zrotation
     End Site
     {
      OFFSET 0.000000 -1.465200 6.326400
     }
    }
   }
  }
 }
 JOINT LeftHip
 {
  OFFSET 7.797300 0.005300 0.000500
  CHANNELS 3 Yrotation Xrotation Zrotation
  JOINT LeftKnee
  {
   OFFSET 0.000000 -40.663400 -0.000500
   CHANNELS 3 Yrotation Xrotation Zrotation
   JOINT LeftAnkle
   {
    OFFSET 0.000000 -39.523700 -0.000900
    CHANNELS 3 Yrotation Xrotation Zrotation
    JOINT LeftToe
    {
     OFFSET 0.000000 -6.418000 14.485300
     CHANNELS 3 Yrotation Xrotation Zrotation
     End Site
     {
      OFFSET 0.000000 -1.465200 6.326400
     }
    }
   }
  }
 }
}
MOTION
Frames: 5
Frame Time: 0.008333
0.000000 86.422400 0.000000 0.000000 -5.767877 0.000000 0.000000 11.653817 0.000000 0.000000 -5.885947 0.000000 0.000000 -0.000000 0.000000 0.000000 -0.000000 0.000000 0.000000 12.528835 0.000000 0.000000 0.711642 0.000000 0.000000 -0.000000 0.000000 0.000000 0.000000 -90.000000 0.000000 -2.309062 0.000000 0.000000 2.309062 0.000000 0.000000 -0.000000 0.000000 0.000000 -0.000000 90.000000 0.000000 -2.309062 0.000000 0.000000 2.309062 0.000000 0.000000 8.520406 0.000000 0.000000 1.905762 0.000000 -0.000000 -4.658285 0.000000 0.000000 -0.000000 0.000000 0.000000 8.520406 0.000000 0.000000 1.905762 0.000000 -0.000000 -4.658285 0.000000 0.000000 -0.000000 0.000000
-14.684237 126.911568 22.834556 -170.292112 -48.134779 -2.048893 -2.536716 25.987206 1.205991 -0.448806 4.306904 0.272968 -0.706878 6.851191 0.424445 -2.102840 21.357833 1.066425 -6.112689 14.535182 -4.756681 -5.509156 -10.304941 -3.707349 0.774418 1.453122 -0.389744 7.635028 -6.679138 -8.137096 -60.379774 -59.679367 118.048139 8.266706 21.862551 20.376006 -8.713136 -3.083649 0.047008 -10.021147 -12.434717 7.195683 34.144119 -41.544279 -87.039003 -1.796023 -1.999176 -14.812085 -4.414438 -24.292198 -4.317850 -4.525140 78.502301 -3.461568 11.197240 -13.753445 1.892644 0.000223 -0.001069 0.000099 6.852860 5.197647 1.872286 128.574698 65.491066 148.006371 5.893444 12.504190 2.412193 0.002928 0.002527 0.001297
-14.683941 126.911917 22.834753 -170.292672 -48.139850 -2.049949 -2.536952 25.986840 1.213894 -0.448708 4.310905 0.267419 -0.708511 6.846330 0.433606 -2.106679 21.356713 1.072574 -6.111383 14.538174 -4.775774 -5.463494 -10.321682 -3.731838 0.769240 1.452506 -0.391397 7.646301 -6.710008 -8.136546 -60.295849 -59.637078 117.974943 8.287978 21.877893 20.359660 -8.710689 -3.081128 0.039923 -10.015171 -12.436081 7.204810 34.142420 -41.545350 -87.042903 -1.789556 -2.009818 -14.796000 -4.410100 -24.285709 -4.317296 -4.553040 78.502732 -3.487059 11.203635 -13.757517 1.895065 -0.000049 -0.001156 -0.000022 6.853088 5.198541 1.869688 128.585013 65.488448 148.017179 5.918795 12.538548 2.335248 -0.000452 0.008656 -0.000200
-14.684143 126.912324 22.835040 -170.283853 -48.145325 -2.054259 -2.544256 25.987412 1.220732 -0.451134 4.309375 0.265341 -0.708439 6.848092 0.435315 -2.110044 21.355198 1.077619 -6.096099 14.532805 -4.788482 -5.432760 -10.330125 -3.757960 0.762538 1.452388 -0.393475 7.659503 -6.725080 -8.140008 -60.249768 -59.613589 117.930243 8.290335 21.874391 20.344441 -8.711523 -3.076941 0.044474 -10.008746 -12.440669 7.194666 34.132300 -41.550137 -87.033707 -1.780938 -2.024849 -14.771573 -4.414138 -24.278010 -4.316287 -4.585259 78.505192 -3.519793 11.194468 -13.766906 1.896735 -0.001059 -0.001242 -0.000469 6.850444 5.203568 1.867708 128.582464 65.486008 148.013929 5.927937 12.549318 2.311857 -0.002873 0.011279 -0.001273
-14.683814 126.912041 22.835891 -170.280627 -48.145654 -2.056065 -2.546624 25.985150 1.225684 -0.451941 4.307457 0.271714 -0.709736 6.851046 0.426801 -2.113081 21.349411 1.093437 -6.078287 14.528971 -4.804104 -5.434436 -10.328578 -3.770144 0.760931 1.457575 -0.409076 7.671161 -6.749883 -8.134988 -60.195131 -59.586008 117.872757 8.284208 21.865271 20.318447 -8.718857 -3.069664 0.037454 -9.998465 -12.445806 7.192821 34.126524 -41.550741 -87.029694 -1.773749 -2.038280 -14.757666 -4.419081 -24.279790 -4.316275 -4.592184 78.509546 -3.530191 11.209445 -13.768335 1.892898 -0.000440 -0.001657 -0.000195 6.849206 5.202864 1.866502 128.575524 65.483563 148.007652 5.924133 12.550237 2.323265 -0.001471 0.009034 -0.000652
